<?xml version="1.0" encoding="UTF-8" standalone="no"?>
<!-- Generator: Adobe Illustrator 16.0.0, SVG Export Plug-In . SVG Version: 6.00 Build 0)  -->

<svg
   xmlns:dc="http://purl.org/dc/elements/1.1/"
   xmlns:cc="http://creativecommons.org/ns#"
   xmlns:rdf="http://www.w3.org/1999/02/22-rdf-syntax-ns#"
   xmlns:svg="http://www.w3.org/2000/svg"
   xmlns="http://www.w3.org/2000/svg"
   xmlns:sodipodi="http://sodipodi.sourceforge.net/DTD/sodipodi-0.dtd"
   xmlns:inkscape="http://www.inkscape.org/namespaces/inkscape"
   version="1.1"
   x="0px"
   y="0px"
   width="1224px"
   height="792px"
   viewBox="0 0 1224 792"
   enable-background="new 0 0 1224 792"
   xml:space="preserve"
   id="svg2"
   inkscape:version="0.48.5 r10040"
   sodipodi:docname="jsi-logo.svg"><metadata
   id="metadata90"><rdf:RDF><cc:Work
       rdf:about=""><dc:format>image/svg+xml</dc:format><dc:type
         rdf:resource="http://purl.org/dc/dcmitype/StillImage" /><dc:title></dc:title></cc:Work></rdf:RDF></metadata><defs
   id="defs88">
	
	

	
	
	
	
	
</defs><sodipodi:namedview
   pagecolor="#ffffff"
   bordercolor="#666666"
   borderopacity="1"
   objecttolerance="10"
   gridtolerance="10"
   guidetolerance="10"
   inkscape:pageopacity="0"
   inkscape:pageshadow="2"
   inkscape:window-width="1920"
   inkscape:window-height="1018"
   id="namedview86"
   showgrid="false"
   inkscape:zoom="1.869281"
   inkscape:cx="645.9374"
   inkscape:cy="461.27162"
   inkscape:window-x="-8"
   inkscape:window-y="-8"
   inkscape:window-maximized="1"
   inkscape:current-layer="svg2" />
<g
   id="g5">
		<path
   inkscape:connector-curvature="0"
   id="path7"
   d="m 330.046,385.766 c 1.312,-2.68 1.969,-7.065 1.969,-13.158 V 326.92 h 2.6 v 46.603 c 0,13.706 -4.833,20.56 -14.495,20.56 -6.354,0 -10.556,-2.954 -12.604,-8.863 0.419,-0.122 0.827,-0.289 1.221,-0.503 0.394,-0.213 0.8,-0.441 1.221,-0.686 1.733,4.935 5.199,7.402 10.398,7.402 4.727,-10e-4 7.957,-1.889 9.69,-5.667 z" />
		<path
   inkscape:connector-curvature="0"
   id="path9"
   d="m 361.948,326.919 h 2.994 l 21.505,65.7 h -2.6 l -7.326,-22.388 h -26.389 l -7.405,22.388 h -2.6 l 21.821,-65.7 z m 13.628,40.571 -12.131,-37.008 -12.368,37.008 h 24.499 z" />
		<path
   inkscape:connector-curvature="0"
   id="path11"
   d="m 428.59,387.959 c -3.887,3.961 -8.979,5.939 -15.281,5.939 -8.088,0 -14.18,-3.441 -18.276,-10.326 -3.519,-5.907 -5.277,-13.798 -5.277,-23.666 0,-9.869 1.812,-17.879 5.436,-24.032 4.147,-6.945 10.345,-10.418 18.591,-10.418 5.618,0 10.371,1.798 14.258,5.392 2.783,2.559 4.752,5.697 5.908,9.412 l -2.442,1.462 c -2.573,-9.015 -8.64,-13.523 -18.196,-13.523 -7.09,0 -12.474,3.381 -16.149,10.143 -3.099,5.727 -4.647,12.916 -4.647,21.565 0,8.712 1.497,15.84 4.49,21.382 3.57,6.702 8.874,10.052 15.912,10.052 5.672,0 10.267,-1.767 13.786,-5.3 2.729,-2.741 4.541,-6.273 5.435,-10.6 l 2.285,1.37 c -1.002,4.448 -2.945,8.164 -5.833,11.148 z" />
		<path
   inkscape:connector-curvature="0"
   id="path13"
   d="m 445.841,326.919 h 2.679 v 37.008 l 31.431,-37.008 h 3.388 l -22.372,26.316 25.759,39.384 h -3.15 l -24.342,-37.282 -10.713,12.61 v 24.672 h -2.679 v -65.7 z" />
		<path
   inkscape:connector-curvature="0"
   id="path15"
   d="m 508.86,326.919 h 2.993 l 21.505,65.7 h -2.6 l -7.325,-22.388 h -26.39 l -7.404,22.388 h -2.6 l 21.821,-65.7 z m 13.628,40.571 -12.132,-37.008 -12.367,37.008 h 24.499 z" />
		<path
   inkscape:connector-curvature="0"
   id="path17"
   d="m 539.188,326.919 h 2.679 v 62.776 h 30.013 v 2.924 h -32.691 v -65.7 z" />
		<path
   inkscape:connector-curvature="0"
   id="path19"
   d="m 579.912,335.69 c 4.412,-6.821 10.792,-10.234 19.143,-10.234 8.401,0 14.81,3.382 19.221,10.144 3.938,6.153 5.908,14.225 5.908,24.215 0,10.052 -1.97,18.093 -5.908,24.124 -4.411,6.702 -10.819,10.052 -19.221,10.052 -8.403,0 -14.784,-3.35 -19.143,-10.052 -3.938,-6.031 -5.907,-14.072 -5.907,-24.124 0,-9.929 1.969,-17.97 5.907,-24.125 z m 1.97,46.147 c 3.886,6.336 9.61,9.503 17.173,9.503 7.614,0 13.364,-3.167 17.251,-9.503 3.413,-5.543 5.121,-12.885 5.121,-22.022 0,-9.076 -1.733,-16.416 -5.199,-22.021 -3.939,-6.396 -9.664,-9.595 -17.173,-9.595 -7.511,0 -13.234,3.198 -17.173,9.595 -3.414,5.605 -5.12,12.945 -5.12,22.021 0,9.078 1.706,16.417 5.12,22.022 z" />
		<path
   inkscape:connector-curvature="0"
   id="path21"
   d="m 670.581,344.28 c 0,5.3 -1.418,9.626 -4.254,12.976 -1.891,2.193 -4.438,3.655 -7.642,4.387 -1.839,0.427 -4.753,0.64 -8.743,0.64 h -12.525 v 30.337 h -2.679 v -65.7 h 15.44 c 13.601,-0.001 20.403,5.787 20.403,17.36 z m -33.164,-14.62 v 29.88 h 10.792 c 6.564,0 10.949,-0.578 13.155,-1.735 4.306,-2.193 6.46,-6.792 6.46,-13.799 0,-7.918 -3.493,-12.519 -10.478,-13.798 -1.891,-0.365 -4.911,-0.548 -9.059,-0.548 h -10.87 z" />
		<path
   inkscape:connector-curvature="0"
   id="path23"
   d="m 680.033,326.919 h 34.582 v 2.924 h -31.903 v 27.139 h 25.286 v 2.833 h -25.286 v 29.881 h 32.691 v 2.924 h -35.37 v -65.701 z" />
		<path
   inkscape:connector-curvature="0"
   id="path25"
   d="m 309.407,452.085 c 0.315,5.727 1.93,10.28 4.844,13.661 2.915,3.381 6.893,5.071 11.935,5.071 4.411,0 8.086,-1.279 11.028,-3.838 3.36,-2.801 5.042,-6.639 5.042,-11.514 0,-5.056 -1.76,-8.863 -5.278,-11.422 -1.733,-1.34 -5.514,-2.924 -11.344,-4.752 -0.053,-0.06 -0.394,-0.183 -1.024,-0.365 -6.512,-2.132 -10.634,-4.112 -12.368,-5.939 -2.678,-2.802 -4.017,-6.427 -4.017,-10.874 0,-5.604 1.68,-9.899 5.042,-12.885 3.098,-2.862 7.089,-4.295 11.974,-4.295 5.304,0 9.558,1.677 12.761,5.026 3.309,3.351 5.093,8.103 5.356,14.255 h -2.521 c -0.106,-5.3 -1.654,-9.442 -4.648,-12.428 -2.889,-2.862 -6.591,-4.295 -11.107,-4.295 -4.202,0 -7.589,1.22 -10.162,3.655 -2.784,2.559 -4.175,6.214 -4.175,10.966 0,3.412 1.155,6.366 3.466,8.863 1.733,1.828 5.461,3.596 11.186,5.3 0.105,0.062 0.249,0.107 0.434,0.138 0.183,0.031 0.406,0.106 0.669,0.229 6.039,1.889 10.188,3.654 12.446,5.3 3.99,2.985 5.987,7.219 5.987,12.701 0,6.093 -1.865,10.844 -5.593,14.255 -3.415,3.047 -7.826,4.569 -13.234,4.569 -5.725,0 -10.268,-1.919 -13.628,-5.757 -3.414,-3.716 -5.305,-8.924 -5.671,-15.626 h 2.6 z" />
		<path
   inkscape:connector-curvature="0"
   id="path27"
   d="m 391.253,467.437 c -3.887,3.961 -8.98,5.939 -15.282,5.939 -8.088,0 -14.179,-3.441 -18.275,-10.326 -3.519,-5.907 -5.278,-13.798 -5.278,-23.666 0,-9.869 1.812,-17.879 5.435,-24.032 4.148,-6.945 10.345,-10.418 18.591,-10.418 5.619,0 10.371,1.798 14.258,5.392 2.783,2.559 4.753,5.697 5.908,9.412 l -2.441,1.462 c -2.574,-9.015 -8.64,-13.523 -18.197,-13.523 -7.089,0 -12.473,3.381 -16.148,10.143 -3.1,5.727 -4.648,12.916 -4.648,21.565 0,8.712 1.497,15.84 4.49,21.382 3.571,6.702 8.875,10.052 15.912,10.052 5.672,0 10.267,-1.767 13.786,-5.3 2.73,-2.741 4.542,-6.273 5.436,-10.6 l 2.284,1.37 c -1,4.447 -2.943,8.163 -5.831,11.148 z" />
		<path
   inkscape:connector-curvature="0"
   id="path29"
   d="m 408.898,406.396 h 2.6 v 65.7 h -2.6 v -65.7 z" />
		<path
   inkscape:connector-curvature="0"
   id="path31"
   d="m 424.809,406.396 h 34.582 v 2.924 h -31.903 v 27.139 h 25.286 v 2.833 h -25.286 v 29.881 h 32.691 v 2.924 h -35.37 v -65.701 z" />
		<path
   inkscape:connector-curvature="0"
   id="path33"
   d="m 469.473,406.396 h 2.679 l 35.527,60.491 v -60.491 h 2.6 v 65.7 h -2.6 l -35.606,-60.4 v 60.4 h -2.6 v -65.7 z" />
		<path
   inkscape:connector-curvature="0"
   id="path35"
   d="m 559.589,467.437 c -3.887,3.961 -8.979,5.939 -15.281,5.939 -8.088,0 -14.18,-3.441 -18.276,-10.326 -3.519,-5.907 -5.277,-13.798 -5.277,-23.666 0,-9.869 1.812,-17.879 5.436,-24.032 4.147,-6.945 10.345,-10.418 18.591,-10.418 5.618,0 10.371,1.798 14.258,5.392 2.783,2.559 4.752,5.697 5.908,9.412 l -2.442,1.462 c -2.573,-9.015 -8.64,-13.523 -18.196,-13.523 -7.09,0 -12.474,3.381 -16.149,10.143 -3.099,5.727 -4.647,12.916 -4.647,21.565 0,8.712 1.497,15.84 4.49,21.382 3.57,6.702 8.874,10.052 15.912,10.052 5.672,0 10.267,-1.767 13.786,-5.3 2.729,-2.741 4.541,-6.273 5.435,-10.6 l 2.285,1.37 c -1.002,4.447 -2.945,8.163 -5.833,11.148 z" />
		<path
   inkscape:connector-curvature="0"
   id="path37"
   d="m 576.84,406.396 h 34.582 v 2.924 h -31.903 v 27.139 h 25.286 v 2.833 h -25.286 v 29.881 h 32.691 v 2.924 h -35.37 v -65.701 z" />
		<path
   inkscape:connector-curvature="0"
   id="path39"
   d="m 633.016,405.454 h 1.886 v 48.474 h -1.886 v -48.474 z" />
		<path
   inkscape:connector-curvature="0"
   id="path41"
   d="m 644.556,405.454 h 1.943 l 25.767,44.631 v -44.631 h 1.886 v 48.474 h -1.886 l -25.824,-44.563 v 44.563 h -1.886 v -48.474 z" />
		<path
   inkscape:connector-curvature="0"
   id="path43"
   d="m 709.917,450.489 c -2.819,2.922 -6.514,4.383 -11.084,4.383 -5.866,0 -10.284,-2.539 -13.255,-7.619 -2.553,-4.358 -3.828,-10.18 -3.828,-17.461 0,-7.281 1.313,-13.19 3.942,-17.73 3.008,-5.124 7.503,-7.687 13.483,-7.687 4.075,0 7.521,1.326 10.341,3.979 2.019,1.888 3.447,4.203 4.285,6.943 l -1.771,1.079 c -1.867,-6.651 -6.267,-9.978 -13.198,-9.978 -5.143,0 -9.047,2.494 -11.713,7.483 -2.248,4.225 -3.371,9.528 -3.371,15.91 0,6.428 1.086,11.687 3.257,15.776 2.59,4.944 6.437,7.415 11.541,7.415 4.114,0 7.446,-1.303 9.999,-3.91 1.979,-2.022 3.294,-4.628 3.942,-7.82 l 1.656,1.012 c -0.722,3.282 -2.132,6.024 -4.226,8.225 z" />
	</g><g
   id="g45">
		<g
   id="g47">
			<g
   id="g49">
				<path
   style="fill:#58595b"
   inkscape:connector-curvature="0"
   id="path51"
   d="m 745.93254,438.5597 c -0.20962,0.8976 0.045,-1.55649 -0.70698,3.30023 -0.49055,3.168 -1.0111,6.33109 -1.62656,9.47907 -1.238,6.335 -2.812,12.51 -3.327,18.966 -0.607,7.594 2.022,22.179 12.895,19.29 0.935,-0.249 0.537,-1.695 -0.398,-1.447 -8.167,2.171 -10.738,-7.639 -11.076,-13.395 -0.293,-5.004 0.637,-10.083 1.596,-14.968 1.15117,-5.86119 2.18101,-11.72449 3.18516,-17.59453 0.82591,-4.82808 0.14371,-1.46332 0.37242,-2.56406 -0.3061,-0.17599 -0.27995,-1.45031 -0.44595,-0.49831 z"
   sodipodi:nodetypes="csccccccsccc" />
			</g>
		</g>
		<g
   id="g53">
			<g
   id="g55">
				<path
   style="fill:#58595b"
   inkscape:connector-curvature="0"
   id="path57"
   d="m 748.252,488.404 c -0.032,-1.314 1.265,-2.935 2.095,-4.089 -0.432,0 -0.863,0 -1.295,0 10.024,18.356 38.169,16.107 45.164,-3.668 0.323,-0.914 -1.127,-1.304 -1.447,-0.398 -6.595,18.646 -33.061,20.452 -42.422,3.309 -0.291,-0.533 -0.983,-0.434 -1.295,0 -1.159,1.613 -2.351,2.779 -2.3,4.847 0.023,0.965 1.523,0.967 1.5,-10e-4 l 0,0 z" />
			</g>
		</g>
		<g
   id="g59">
			<g
   id="g61">
				<path
   style="fill:#58595b"
   inkscape:connector-curvature="0"
   id="path63"
   d="m 779.938,495.168 c 8.711,3.416 20.518,-3.673 27.473,-8.208 8.658,-5.646 14.299,-13.132 19.82,-21.627 -0.55855,-0.30569 -0.68825,-0.34742 -1.295,-0.758 -5.145,7.917 -10.328,14.761 -18.154,20.321 -6.654,4.729 -18.884,12.182 -27.445,8.824 -0.902,-0.353 -1.289,1.098 -0.399,1.448 z"
   sodipodi:nodetypes="cccccccc" />
			</g>
		</g>
	</g><g
   id="g65">
		<g
   id="g67">
			<path
   style="fill:#58595b"
   inkscape:connector-curvature="0"
   id="path69"
   d="m 805.91647,355.54268 c 0.13014,-1.06548 0.17853,-2.63768 -0.21447,-8.31568 -0.859,-12.4 -0.12,-24.745 0.301,-37.171 0.487,-14.388 1.264,-28.936 3.012,-43.229 1.727,-14.111 5.414,-29.49 14.858,-40.533 8.265,-9.665 23.535,-17.886 32.441,-4.547 5.508,8.249 6.481,19.261 8.04,28.806 4.132,25.3 -1.74677,55.03818 -17.61,75.519 -9.94881,12.84479 -24.51104,23.35387 -26.12027,40.05384 -0.17116,1.77626 0.0643,-0.44392 -0.12366,1.45904 0.75663,0.41522 1.1218,0.56408 1.52365,0.63834 0.17023,-3.52427 -0.065,-0.17459 0.10262,-1.89781 1.00332,-10.31633 7.12192,-18.57261 14.22366,-26.37441 7.463,-8.199 14.599,-15.898 19.637,-25.895 10.571,-20.972 12.826,-44.863 9.195,-67.774 -1.474,-9.297 -3.125,-19.371 -8.857,-27.118 -5.406,-7.307 -14.023,-7.281 -21.594,-3.559 -22.465,11.048 -26.629,40.844 -28.374,62.946 -1.43,18.109 -1.835,36.233 -2.599,54.373 -0.236,5.606 0.253,11.019 0.594,16.612 0.288,4.726 0.13745,0.81942 0.28634,5.75294 0.55054,0.14029 0.0339,0.53488 0.89985,0.11188 z"
   sodipodi:nodetypes="cccccccssccsccccccccccc" />
		</g>
	</g><g
   id="g71">
		<g
   id="g73">
			<path
   style="fill:#58595b"
   inkscape:connector-curvature="0"
   id="path75"
   d="m 852.799,316.953 c -2.297,5.669 -3.541,11.663 -6.949,16.825 -3.612,5.47 -6.733,9.575 -8.019,16.149 -1.21175,6.19813 -1.00525,11.26943 -0.61793,17.53109 0.079,1.2773 0.1154,1.31344 0.0507,2.35209 1.08862,-0.50233 0.66759,-0.5011 1.6125,0.32707 0.12142,-1.03494 0.19975,-0.54487 0.0985,-1.64637 -0.55561,-6.04213 -0.59513,-12.12278 0.30227,-18.16588 1.018,-6.856 5.078,-11.566 8.754,-17.133 3.112,-4.715 4.115,-10.66 6.215,-15.842 0.363,-0.895 -1.089,-1.282 -1.447,-0.397 z"
   sodipodi:nodetypes="cccsccsccccc" />
		</g>
	</g><path
   style="fill:#9b9a9a;fill-rule:evenodd"
   inkscape:connector-curvature="0"
   id="path77"
   d="m 720.991,277.987 c -3.279,-7.929 -8.782,-14.204 -14.558,-20.408 -2.42,-2.6 -4.891,-4.869 -7.363,-7.38 -2.756,-2.797 -5.804,-5.392 -8.398,-8.342 -0.733,-0.835 -4.02,-3.531 -1.654,-4.218 1.707,-0.496 3.275,0.067 4.628,1.121 3.577,2.79 6.71,6.259 10.075,9.304 6.023,5.451 12.023,10.739 16.754,17.415 4.961,6.998 7.561,15.062 11.08,22.804 3.516,7.737 6.537,13.649 14.105,17.932 7.598,4.298 13.568,9.849 19.774,15.925 -2.63,-16.941 0.153,-33.596 4.161,-50.068 1.947,-8.001 4.813,-15.866 8.387,-23.267 3.633,-7.523 7.484,-14.362 7.807,-22.92 0.313,-8.289 -0.013,-16.724 -1.617,-24.875 -0.84,-4.262 -2.119,-8.35 -3.719,-12.384 -0.197,-0.494 -4.275,-11.114 0.181,-7.897 11.903,8.588 11.124,29.313 11.682,42.562 5.181,-13.308 8.663,-29.924 8.386,-44.221 -0.07,-3.681 -0.721,-7.231 -1.375,-10.841 0.009,0.05 -1.313,-7.736 0.585,-6.115 5.37,4.594 6.249,13.748 7.278,20.265 2.744,33.271 -14.166,59.172 -23.665,87.015 -4.803,14.074 -7.351,29.113 -5.708,43.98 0.801,7.244 2.357,14.389 4.35,21.394 2.051,7.214 3.625,14.834 7.551,21.315 0.895,1.477 1.74045,2.74994 0.95807,7.89342 -1.22137,0.26443 -0.75199,0.2204 -2.64855,0.63219 -1.02057,-1.7189 -1.65907,-2.59197 -4.88204,-6.85326 -2.53914,0.68875 0.58547,-0.002 -2.80353,0.99211 -0.35675,1.35712 -0.31653,3.13479 0.14015,8.33566 -1.21789,0.6978 -1.70658,0.81223 -2.53214,1.28559 -0.28108,-1.93019 -4.90436,-3.85246 -5.52995,-5.37334 -1.84929,-4.49588 -3.51843,-5.09138 -7.76342,-8.75428 -4.225,-3.644 -10.75159,-6.89209 -13.43759,-11.69609 5.238,-2.139 13.104,4.191 17.697,6.862 1.427,-1.753 -2.193,-9.632 -3.117,-11.531 -2.455,-5.056 -6.77,-8.898 -10.771,-12.729 -7.996,-7.652 -15.567,-14.945 -27.15,-15.624 -18.75,-1.102 -43.031,-0.9 -58.6,-13.462 -7.293,-5.885 -12.783,-13.974 -16.898,-22.332 -0.609,-1.238 -2.057,-3.395 -1.817,-4.826 0.474,-2.818 3.947,0.5 4.504,1.303 3.299,4.76 6.45,9.453 10.021,14.036 2.824,3.625 5.293,7.13 9.758,8.83 5.606,2.135 11.236,4.259 17.057,5.746 11.648,2.977 23.34,2.78 35.238,3.35 -2.725,-4.744 -2.975,-16.503 -6.15,-24.181 z"
   clip-rule="evenodd"
   sodipodi:nodetypes="ccccccccccccscccccccccccccccccccsccccccccccccccc" />
<g
   style="fill:none"
   id="LWPOLYLINE_1_">
		<path
   inkscape:connector-curvature="0"
   style="fill:none;stroke:#000000;stroke-miterlimit:10"
   id="path84"
   d="m 850.521,420.889 0.28,-2.658 c 1.449,-0.365 2.898,-0.735 4.348,-1.11 1.287,-0.333 2.54,-0.785 3.743,-1.351 v -3.089 c -1.203,-0.566 -2.456,-1.019 -3.743,-1.351 -1.449,-0.375 -2.898,-0.745 -4.348,-1.111 l -0.28,-2.657 c 1.342,-0.66 2.684,-1.322 4.021,-1.991 1.19,-0.593 2.324,-1.296 3.383,-2.099 l -0.643,-3.022 c -1.295,-0.303 -2.615,-0.484 -3.943,-0.542 -1.494,-0.066 -2.988,-0.127 -4.484,-0.183 l -0.826,-2.542 c 1.178,-0.924 2.351,-1.852 3.521,-2.783 1.041,-0.827 2.001,-1.751 2.871,-2.756 l -1.258,-2.822 c -1.328,-0.027 -2.658,0.069 -3.969,0.288 -1.475,0.247 -2.95,0.499 -4.424,0.754 l -1.337,-2.313 c 0.958,-1.149 1.913,-2.301 2.865,-3.455 0.847,-1.025 1.594,-2.129 2.235,-3.293 l -1.816,-2.499 c -1.305,0.249 -2.585,0.62 -3.821,1.108 -1.394,0.548 -2.783,1.101 -4.171,1.657 l -1.789,-1.987 c 0.698,-1.322 1.394,-2.646 2.084,-3.975 0.615,-1.178 1.117,-2.413 1.502,-3.685 l -2.295,-2.067 c -1.227,0.516 -2.4,1.144 -3.509,1.878 -1.249,0.826 -2.493,1.655 -3.735,2.488 l -2.164,-1.57 c 0.41,-1.439 0.814,-2.88 1.213,-4.321 0.356,-1.281 0.592,-2.593 0.704,-3.917 l -2.677,-1.545 c -1.09,0.759 -2.109,1.618 -3.041,2.566 -1.049,1.067 -2.094,2.138 -3.136,3.211 l -2.442,-1.087 c 0.102,-1.493 0.197,-2.985 0.288,-4.479 0.081,-1.327 0.038,-2.658 -0.128,-3.978 l -2.938,-0.954 c -0.91,0.97 -1.727,2.021 -2.441,3.143 -0.804,1.262 -1.604,2.525 -2.4,3.793 l -2.613,-0.556 c -0.212,-1.481 -0.43,-2.961 -0.65,-4.441 -0.196,-1.315 -0.516,-2.608 -0.951,-3.864 l -3.074,-0.322 c -0.688,1.137 -1.268,2.336 -1.732,3.582 -0.525,1.401 -1.045,2.804 -1.561,4.209 h -2.672 c -0.516,-1.405 -1.035,-2.808 -1.56,-4.21 -0.466,-1.245 -1.046,-2.444 -1.733,-3.581 l -3.073,0.322 c -0.437,1.256 -0.756,2.549 -0.952,3.864 -0.221,1.48 -0.438,2.96 -0.65,4.441 l -2.613,0.556 c -0.795,-1.268 -1.596,-2.531 -2.4,-3.793 -0.714,-1.121 -1.531,-2.173 -2.441,-3.143 l -2.938,0.954 c -0.166,1.319 -0.209,2.65 -0.128,3.978 0.092,1.494 0.188,2.986 0.288,4.479 l -2.442,1.087 c -1.041,-1.073 -2.087,-2.144 -3.136,-3.211 -0.932,-0.948 -1.949,-1.808 -3.04,-2.566 l -2.677,1.545 c 0.111,1.324 0.348,2.636 0.703,3.917 0.398,1.442 0.803,2.882 1.213,4.321 l -2.162,1.57 c -1.244,-0.833 -2.488,-1.662 -3.736,-2.488 -1.107,-0.734 -2.283,-1.362 -3.508,-1.878 l -2.297,2.067 c 0.385,1.271 0.889,2.507 1.502,3.685 0.69,1.328 1.386,2.652 2.085,3.975 l -1.788,1.987 c -1.39,-0.557 -2.779,-1.109 -4.172,-1.657 -1.236,-0.488 -2.516,-0.859 -3.822,-1.108 l -1.816,2.499 c 0.642,1.164 1.389,2.268 2.235,3.293 0.952,1.154 1.907,2.306 2.866,3.455 l -1.338,2.313 c -1.474,-0.255 -2.947,-0.507 -4.424,-0.754 -1.311,-0.219 -2.641,-0.315 -3.969,-0.288 l -1.258,2.822 c 0.87,1.005 1.832,1.929 2.871,2.756 1.171,0.932 2.346,1.859 3.521,2.783 l -0.826,2.542 c -1.494,0.056 -2.99,0.116 -4.484,0.183 -1.327,0.058 -2.647,0.239 -3.943,0.542 l -0.641,3.022 c 1.059,0.803 2.191,1.506 3.381,2.099 1.338,0.669 2.68,1.331 4.021,1.991 l -0.279,2.657 c -1.45,0.366 -2.899,0.736 -4.349,1.111 -1.287,0.332 -2.54,0.784 -3.743,1.351 v 3.089 c 1.203,0.565 2.456,1.018 3.743,1.351 1.449,0.375 2.898,0.745 4.349,1.11 l 0.279,2.658 c -1.342,0.659 -2.684,1.323 -4.021,1.99 -1.189,0.593 -2.322,1.296 -3.381,2.1 l 0.641,3.021 c 1.296,0.303 2.616,0.484 3.943,0.542 1.494,0.066 2.99,0.127 4.484,0.183 l 0.826,2.542 c -1.176,0.924 -2.351,1.852 -3.521,2.784 -1.039,0.826 -2.001,1.75 -2.871,2.755 l 1.258,2.823 c 1.328,0.026 2.658,-0.07 3.969,-0.289 1.477,-0.247 2.95,-0.498 4.424,-0.755 l 1.338,2.314 c -0.959,1.149 -1.914,2.301 -2.866,3.454 -0.847,1.027 -1.594,2.13 -2.235,3.294 l 1.816,2.5 c 1.307,-0.251 2.586,-0.621 3.822,-1.108 1.393,-0.549 2.782,-1.102 4.172,-1.657 l 1.788,1.986 c -0.699,1.322 -1.395,2.648 -2.085,3.974 -0.613,1.18 -1.117,2.413 -1.502,3.687 l 2.297,2.066 c 1.225,-0.516 2.4,-1.144 3.508,-1.878 1.248,-0.826 2.492,-1.655 3.736,-2.488 l 2.162,1.57 c -0.41,1.439 -0.814,2.88 -1.213,4.321 -0.355,1.281 -0.592,2.593 -0.703,3.918 l 2.677,1.545 c 1.091,-0.76 2.108,-1.619 3.04,-2.567 1.049,-1.066 2.095,-2.138 3.136,-3.211 l 2.442,1.087 c -0.1,1.493 -0.196,2.986 -0.288,4.479 -0.081,1.327 -0.038,2.658 0.128,3.978 l 2.938,0.954 c 0.91,-0.969 1.728,-2.021 2.441,-3.143 0.805,-1.263 1.605,-2.526 2.4,-3.793 l 2.613,0.556 c 0.213,1.481 0.43,2.961 0.65,4.442 0.196,1.314 0.516,2.607 0.952,3.863 l 3.073,0.322 c 0.688,-1.137 1.268,-2.336 1.733,-3.581 0.524,-1.401 1.044,-2.805 1.56,-4.209 h 2.672 c 0.516,1.404 1.035,2.808 1.561,4.209 0.465,1.245 1.045,2.444 1.732,3.581 l 3.074,-0.322 c 0.436,-1.256 0.755,-2.549 0.951,-3.863 0.221,-1.481 0.438,-2.961 0.65,-4.442 l 2.613,-0.556 c 0.797,1.267 1.597,2.53 2.4,3.793 0.715,1.121 1.531,2.174 2.441,3.143 l 2.938,-0.954 c 0.166,-1.319 0.209,-2.65 0.128,-3.978 -0.091,-1.493 -0.187,-2.986 -0.288,-4.479 l 2.442,-1.087 c 1.042,1.073 2.087,2.145 3.136,3.211 0.932,0.948 1.951,1.808 3.041,2.567 l 2.677,-1.545 c -0.112,-1.325 -0.348,-2.637 -0.704,-3.918 -0.398,-1.441 -0.803,-2.882 -1.213,-4.321 l 2.164,-1.57 c 1.242,0.833 2.486,1.662 3.735,2.488 1.108,0.734 2.282,1.362 3.509,1.878 l 2.295,-2.066 c -0.385,-1.273 -0.887,-2.507 -1.502,-3.687 -0.69,-1.325 -1.386,-2.651 -2.084,-3.974 l 1.789,-1.986 c 1.388,0.556 2.777,1.108 4.171,1.657 1.236,0.487 2.517,0.857 3.821,1.108 l 1.816,-2.5 c -0.642,-1.164 -1.389,-2.267 -2.235,-3.294 -0.952,-1.153 -1.907,-2.305 -2.865,-3.454 l 1.337,-2.314 c 1.474,0.257 2.949,0.508 4.424,0.755 1.311,0.219 2.641,0.315 3.969,0.289 l 1.258,-2.823 c -0.87,-1.005 -1.83,-1.929 -2.871,-2.755 -1.171,-0.933 -2.344,-1.86 -3.521,-2.784 l 0.826,-2.542 c 1.496,-0.056 2.99,-0.116 4.484,-0.183 1.328,-0.058 2.648,-0.239 3.943,-0.542 l 0.643,-3.021 c -1.059,-0.804 -2.192,-1.507 -3.383,-2.1 -1.337,-0.667 -2.679,-1.331 -4.021,-1.99 z"
   stroke-miterlimit="10" />
	</g>
</svg>