<?xml version="1.0" encoding="UTF-8" standalone="no"?>
<!-- Generator: Adobe Illustrator 16.0.0, SVG Export Plug-In . SVG Version: 6.00 Build 0)  -->

<svg
   xmlns:dc="http://purl.org/dc/elements/1.1/"
   xmlns:cc="http://creativecommons.org/ns#"
   xmlns:rdf="http://www.w3.org/1999/02/22-rdf-syntax-ns#"
   xmlns:svg="http://www.w3.org/2000/svg"
   xmlns="http://www.w3.org/2000/svg"
   xmlns:sodipodi="http://sodipodi.sourceforge.net/DTD/sodipodi-0.dtd"
   xmlns:inkscape="http://www.inkscape.org/namespaces/inkscape"
   version="1.1"
   x="0px"
   y="0px"
   width="1224px"
   height="792px"
   viewBox="0 0 1224 792"
   enable-background="new 0 0 1224 792"
   xml:space="preserve"
   id="svg2"
   inkscape:version="0.48.5 r10040"
   sodipodi:docname="jackalope.svg"><metadata
   id="metadata90"><rdf:RDF><cc:Work
       rdf:about=""><dc:format>image/svg+xml</dc:format><dc:type
         rdf:resource="http://purl.org/dc/dcmitype/StillImage" /><dc:title></dc:title></cc:Work></rdf:RDF></metadata><defs
   id="defs88" /><sodipodi:namedview
   pagecolor="#ffffff"
   bordercolor="#666666"
   borderopacity="1"
   objecttolerance="10"
   gridtolerance="10"
   guidetolerance="10"
   inkscape:pageopacity="0"
   inkscape:pageshadow="2"
   inkscape:window-width="1920"
   inkscape:window-height="1018"
   id="namedview86"
   showgrid="false"
   inkscape:zoom="1.3217813"
   inkscape:cx="643.32274"
   inkscape:cy="426.90499"
   inkscape:window-x="-8"
   inkscape:window-y="-8"
   inkscape:window-maximized="1"
   inkscape:current-layer="svg2" />
<g
   id="Layer_1"
   inkscape:export-filename="E:\git\jackalopeweb\assets\img\jsi-logo.png"
   inkscape:export-xdpi="100"
   inkscape:export-ydpi="100">
	<g
   id="g5">
		<path
   d="M330.046,385.766c1.312-2.68,1.969-7.065,1.969-13.158v-45.688h2.6v46.603c0,13.706-4.833,20.56-14.495,20.56    c-6.354,0-10.556-2.954-12.604-8.863c0.419-0.122,0.827-0.289,1.221-0.503c0.394-0.213,0.8-0.441,1.221-0.686    c1.733,4.935,5.199,7.402,10.398,7.402C325.083,391.432,328.313,389.544,330.046,385.766z"
   id="path7" />
		<path
   d="M361.948,326.919h2.994l21.505,65.7h-2.6l-7.326-22.388h-26.389l-7.405,22.388h-2.6L361.948,326.919z M375.576,367.49    l-12.131-37.008l-12.368,37.008H375.576z"
   id="path9" />
		<path
   d="M428.59,387.959c-3.887,3.961-8.979,5.939-15.281,5.939c-8.088,0-14.18-3.441-18.276-10.326    c-3.519-5.907-5.277-13.798-5.277-23.666c0-9.869,1.812-17.879,5.436-24.032c4.147-6.945,10.345-10.418,18.591-10.418    c5.618,0,10.371,1.798,14.258,5.392c2.783,2.559,4.752,5.697,5.908,9.412l-2.442,1.462c-2.573-9.015-8.64-13.523-18.196-13.523    c-7.09,0-12.474,3.381-16.149,10.143c-3.099,5.727-4.647,12.916-4.647,21.565c0,8.712,1.497,15.84,4.49,21.382    c3.57,6.702,8.874,10.052,15.912,10.052c5.672,0,10.267-1.767,13.786-5.3c2.729-2.741,4.541-6.273,5.435-10.6l2.285,1.37    C433.421,381.259,431.478,384.975,428.59,387.959z"
   id="path11" />
		<path
   d="M445.841,326.919h2.679v37.008l31.431-37.008h3.388l-22.372,26.316l25.759,39.384h-3.15l-24.342-37.282l-10.713,12.61    v24.672h-2.679V326.919z"
   id="path13" />
		<path
   d="M508.86,326.919h2.993l21.505,65.7h-2.6l-7.325-22.388h-26.39l-7.404,22.388h-2.6L508.86,326.919z M522.488,367.49    l-12.132-37.008l-12.367,37.008H522.488z"
   id="path15" />
		<path
   d="M539.188,326.919h2.679v62.776h30.013v2.924h-32.691V326.919z"
   id="path17" />
		<path
   d="M579.912,335.69c4.412-6.821,10.792-10.234,19.143-10.234c8.401,0,14.81,3.382,19.221,10.144    c3.938,6.153,5.908,14.225,5.908,24.215c0,10.052-1.97,18.093-5.908,24.124c-4.411,6.702-10.819,10.052-19.221,10.052    c-8.403,0-14.784-3.35-19.143-10.052c-3.938-6.031-5.907-14.072-5.907-24.124C574.005,349.886,575.974,341.845,579.912,335.69z     M581.882,381.837c3.886,6.336,9.61,9.503,17.173,9.503c7.614,0,13.364-3.167,17.251-9.503c3.413-5.543,5.121-12.885,5.121-22.022    c0-9.076-1.733-16.416-5.199-22.021c-3.939-6.396-9.664-9.595-17.173-9.595c-7.511,0-13.234,3.198-17.173,9.595    c-3.414,5.605-5.12,12.945-5.12,22.021C576.762,368.893,578.468,376.232,581.882,381.837z"
   id="path19" />
		<path
   d="M670.581,344.28c0,5.3-1.418,9.626-4.254,12.976c-1.891,2.193-4.438,3.655-7.642,4.387    c-1.839,0.427-4.753,0.64-8.743,0.64h-12.525v30.337h-2.679v-65.7h15.44C663.779,326.919,670.581,332.707,670.581,344.28z     M637.417,329.66v29.88h10.792c6.564,0,10.949-0.578,13.155-1.735c4.306-2.193,6.46-6.792,6.46-13.799    c0-7.918-3.493-12.519-10.478-13.798c-1.891-0.365-4.911-0.548-9.059-0.548H637.417z"
   id="path21" />
		<path
   d="M680.033,326.919h34.582v2.924h-31.903v27.139h25.286v2.833h-25.286v29.881h32.691v2.924h-35.37V326.919z"
   id="path23" />
		<path
   d="M309.407,452.085c0.315,5.727,1.93,10.28,4.844,13.661c2.915,3.381,6.893,5.071,11.935,5.071    c4.411,0,8.086-1.279,11.028-3.838c3.36-2.801,5.042-6.639,5.042-11.514c0-5.056-1.76-8.863-5.278-11.422    c-1.733-1.34-5.514-2.924-11.344-4.752c-0.053-0.06-0.394-0.183-1.024-0.365c-6.512-2.132-10.634-4.112-12.368-5.939    c-2.678-2.802-4.017-6.427-4.017-10.874c0-5.604,1.68-9.899,5.042-12.885c3.098-2.862,7.089-4.295,11.974-4.295    c5.304,0,9.558,1.677,12.761,5.026c3.309,3.351,5.093,8.103,5.356,14.255h-2.521c-0.106-5.3-1.654-9.442-4.648-12.428    c-2.889-2.862-6.591-4.295-11.107-4.295c-4.202,0-7.589,1.22-10.162,3.655c-2.784,2.559-4.175,6.214-4.175,10.966    c0,3.412,1.155,6.366,3.466,8.863c1.733,1.828,5.461,3.596,11.186,5.3c0.105,0.062,0.249,0.107,0.434,0.138    c0.183,0.031,0.406,0.106,0.669,0.229c6.039,1.889,10.188,3.654,12.446,5.3c3.99,2.985,5.987,7.219,5.987,12.701    c0,6.093-1.865,10.844-5.593,14.255c-3.415,3.047-7.826,4.569-13.234,4.569c-5.725,0-10.268-1.919-13.628-5.757    c-3.414-3.716-5.305-8.924-5.671-15.626H309.407z"
   id="path25" />
		<path
   d="M391.253,467.437c-3.887,3.961-8.98,5.939-15.282,5.939c-8.088,0-14.179-3.441-18.275-10.326    c-3.519-5.907-5.278-13.798-5.278-23.666c0-9.869,1.812-17.879,5.435-24.032c4.148-6.945,10.345-10.418,18.591-10.418    c5.619,0,10.371,1.798,14.258,5.392c2.783,2.559,4.753,5.697,5.908,9.412l-2.441,1.462c-2.574-9.015-8.64-13.523-18.197-13.523    c-7.089,0-12.473,3.381-16.148,10.143c-3.1,5.727-4.648,12.916-4.648,21.565c0,8.712,1.497,15.84,4.49,21.382    c3.571,6.702,8.875,10.052,15.912,10.052c5.672,0,10.267-1.767,13.786-5.3c2.73-2.741,4.542-6.273,5.436-10.6l2.284,1.37    C396.084,460.736,394.141,464.452,391.253,467.437z"
   id="path27" />
		<path
   d="M408.898,406.396h2.6v65.7h-2.6V406.396z"
   id="path29" />
		<path
   d="M424.809,406.396h34.582v2.924h-31.903v27.139h25.286v2.833h-25.286v29.881h32.691v2.924h-35.37V406.396z"
   id="path31" />
		<path
   d="M469.473,406.396h2.679l35.527,60.491v-60.491h2.6v65.7h-2.6l-35.606-60.4v60.4h-2.6V406.396z"
   id="path33" />
		<path
   d="M559.589,467.437c-3.887,3.961-8.979,5.939-15.281,5.939c-8.088,0-14.18-3.441-18.276-10.326    c-3.519-5.907-5.277-13.798-5.277-23.666c0-9.869,1.812-17.879,5.436-24.032c4.147-6.945,10.345-10.418,18.591-10.418    c5.618,0,10.371,1.798,14.258,5.392c2.783,2.559,4.752,5.697,5.908,9.412l-2.442,1.462c-2.573-9.015-8.64-13.523-18.196-13.523    c-7.09,0-12.474,3.381-16.149,10.143c-3.099,5.727-4.647,12.916-4.647,21.565c0,8.712,1.497,15.84,4.49,21.382    c3.57,6.702,8.874,10.052,15.912,10.052c5.672,0,10.267-1.767,13.786-5.3c2.729-2.741,4.541-6.273,5.435-10.6l2.285,1.37    C564.42,460.736,562.477,464.452,559.589,467.437z"
   id="path35" />
		<path
   d="M576.84,406.396h34.582v2.924h-31.903v27.139h25.286v2.833h-25.286v29.881h32.691v2.924h-35.37V406.396z"
   id="path37" />
		<path
   d="M633.016,405.454h1.886v48.474h-1.886V405.454z"
   id="path39" />
		<path
   d="M644.556,405.454h1.943l25.767,44.631v-44.631h1.886v48.474h-1.886l-25.824-44.563v44.563h-1.886V405.454z"
   id="path41" />
		<path
   d="M709.917,450.489c-2.819,2.922-6.514,4.383-11.084,4.383c-5.866,0-10.284-2.539-13.255-7.619    c-2.553-4.358-3.828-10.18-3.828-17.461s1.313-13.19,3.942-17.73c3.008-5.124,7.503-7.687,13.483-7.687    c4.075,0,7.521,1.326,10.341,3.979c2.019,1.888,3.447,4.203,4.285,6.943l-1.771,1.079c-1.867-6.651-6.267-9.978-13.198-9.978    c-5.143,0-9.047,2.494-11.713,7.483c-2.248,4.225-3.371,9.528-3.371,15.91c0,6.428,1.086,11.687,3.257,15.776    c2.59,4.944,6.437,7.415,11.541,7.415c4.114,0,7.446-1.303,9.999-3.91c1.979-2.022,3.294-4.628,3.942-7.82l1.656,1.012    C713.421,445.546,712.011,448.288,709.917,450.489z"
   id="path43" />
	</g>
	<g
   id="g45">
		<g
   id="g47">
			<g
   id="g49">
				<path
   fill="#58595B"
   d="M747.504,427.292c-1.396,8.002-2.346,16.073-3.905,24.047c-1.238,6.335-2.812,12.51-3.327,18.966      c-0.607,7.594,2.022,22.179,12.895,19.29c0.935-0.249,0.537-1.695-0.398-1.447c-8.167,2.171-10.738-7.639-11.076-13.395      c-0.293-5.004,0.637-10.083,1.596-14.968c2.098-10.682,3.793-21.371,5.664-32.095      C749.115,426.745,747.67,426.34,747.504,427.292L747.504,427.292z"
   id="path51" />
			</g>
		</g>
		<g
   id="g53">
			<g
   id="g55">
				<path
   fill="#58595B"
   d="M748.252,488.404c-0.032-1.314,1.265-2.935,2.095-4.089c-0.432,0-0.863,0-1.295,0      c10.024,18.356,38.169,16.107,45.164-3.668c0.323-0.914-1.127-1.304-1.447-0.398c-6.595,18.646-33.061,20.452-42.422,3.309      c-0.291-0.533-0.983-0.434-1.295,0c-1.159,1.613-2.351,2.779-2.3,4.847C746.775,489.37,748.275,489.372,748.252,488.404      L748.252,488.404z"
   id="path57" />
			</g>
		</g>
		<g
   id="g59">
			<g
   id="g61">
				<path
   fill="#58595B"
   d="M779.938,495.168c8.711,3.416,20.518-3.673,27.473-8.208c8.658-5.646,14.299-13.132,19.82-21.627      c0.529-0.814-0.771-1.565-1.295-0.758c-5.145,7.917-10.328,14.761-18.154,20.321c-6.654,4.729-18.884,12.182-27.445,8.824      C779.435,493.367,779.048,494.818,779.938,495.168L779.938,495.168z"
   id="path63" />
			</g>
		</g>
	</g>
	<g
   id="g65">
		<g
   id="g67">
			<path
   fill="#58595B"
   d="M801.188,366.891c6.419-3.146,4.907-13.986,4.514-19.664c-0.859-12.4-0.12-24.745,0.301-37.171     c0.487-14.388,1.264-28.936,3.012-43.229c1.727-14.111,5.414-29.49,14.858-40.533c8.265-9.665,23.535-17.886,32.441-4.547     c5.508,8.249,6.481,19.261,8.04,28.806c4.132,25.3-1.747,55.038-17.61,75.519c-11.007,14.211-27.661,25.563-26.173,45.603     c0.071,0.959,1.571,0.966,1.5,0c-0.958-12.895,5.991-22.619,14.279-31.724c7.463-8.199,14.599-15.898,19.637-25.895     c10.571-20.972,12.826-44.863,9.195-67.774c-1.474-9.297-3.125-19.371-8.857-27.118c-5.406-7.307-14.023-7.281-21.594-3.559     c-22.465,11.048-26.629,40.844-28.374,62.946c-1.43,18.109-1.835,36.233-2.599,54.373c-0.236,5.606,0.253,11.019,0.594,16.612     c0.288,4.726,1.225,13.539-3.922,16.061C799.562,366.021,800.322,367.314,801.188,366.891L801.188,366.891z"
   id="path69" />
		</g>
	</g>
	<g
   id="g71">
		<g
   id="g73">
			<path
   fill="#58595B"
   d="M852.799,316.953c-2.297,5.669-3.541,11.663-6.949,16.825c-3.612,5.47-6.733,9.575-8.019,16.149     c-2.66,13.606,1.945,27.48-1.111,41.114c-0.211,0.942,1.235,1.343,1.447,0.398c3.052-13.614-0.924-27.417,1.11-41.114     c1.018-6.856,5.078-11.566,8.754-17.133c3.112-4.715,4.115-10.66,6.215-15.842C854.609,316.455,853.157,316.068,852.799,316.953     L852.799,316.953z"
   id="path75" />
		</g>
	</g>
	<path
   fill-rule="evenodd"
   clip-rule="evenodd"
   fill="#9B9A9A"
   d="M720.991,277.987c-3.279-7.929-8.782-14.204-14.558-20.408   c-2.42-2.6-4.891-4.869-7.363-7.38c-2.756-2.797-5.804-5.392-8.398-8.342c-0.733-0.835-4.02-3.531-1.654-4.218   c1.707-0.496,3.275,0.067,4.628,1.121c3.577,2.79,6.71,6.259,10.075,9.304c6.023,5.451,12.023,10.739,16.754,17.415   c4.961,6.998,7.561,15.062,11.08,22.804c3.516,7.737,6.537,13.649,14.105,17.932c7.598,4.298,13.568,9.849,19.774,15.925   c-2.63-16.941,0.153-33.596,4.161-50.068c1.947-8.001,4.813-15.866,8.387-23.267c3.633-7.523,7.484-14.362,7.807-22.92   c0.313-8.289-0.013-16.724-1.617-24.875c-0.84-4.262-2.119-8.35-3.719-12.384c-0.197-0.494-4.275-11.114,0.181-7.897   c11.903,8.588,11.124,29.313,11.682,42.562c5.181-13.308,8.663-29.924,8.386-44.221c-0.07-3.681-0.721-7.231-1.375-10.841   c0.009,0.05-1.313-7.736,0.585-6.115c5.37,4.594,6.249,13.748,7.278,20.265c2.744,33.271-14.166,59.172-23.665,87.015   c-4.803,14.074-7.351,29.113-5.708,43.98c0.801,7.244,2.357,14.389,4.35,21.394c2.051,7.214,3.625,14.834,7.551,21.315   c0.895,1.477,2.828,6.58,4.268,7.326c1.332,0.69,6.057-1.009,4.586,3.091c-0.926,2.584-4.638,5.21-6.537,7.143   c-2.35,2.391-4.143,4.963-7.532,5.957c-1.728,0.506-4.714,0.345-6.196-0.743c-2.4-1.761-2.071-5.351-2.471-8.093   c-1.112-7.636-5.059-11.448-10.74-16.35c-4.225-3.644-11.191-7.065-13.877-11.869c5.238-2.139,13.104,4.191,17.697,6.862   c1.427-1.753-2.193-9.632-3.117-11.531c-2.455-5.056-6.77-8.898-10.771-12.729c-7.996-7.652-15.567-14.945-27.15-15.624   c-18.75-1.102-43.031-0.9-58.6-13.462c-7.293-5.885-12.783-13.974-16.898-22.332c-0.609-1.238-2.057-3.395-1.817-4.826   c0.474-2.818,3.947,0.5,4.504,1.303c3.299,4.76,6.45,9.453,10.021,14.036c2.824,3.625,5.293,7.13,9.758,8.83   c5.606,2.135,11.236,4.259,17.057,5.746c11.648,2.977,23.34,2.78,35.238,3.35C724.416,297.424,724.166,285.665,720.991,277.987z"
   id="path77" />
</g>
<g
   id="_x30_"
   inkscape:export-filename="E:\git\jackalopeweb\assets\img\jsi-logo.png"
   inkscape:export-xdpi="100"
   inkscape:export-ydpi="100">
	<g
   id="CIRCLE_1_">
		
			<path
   fill="none"
   stroke="#000000"
   stroke-width="0.25"
   stroke-linecap="round"
   stroke-linejoin="round"
   stroke-miterlimit="10"
   d="    M827.471,414.225c0-15.224-12.343-27.565-27.564-27.565c-15.225,0-27.568,12.342-27.568,27.565    c0,15.223,12.344,27.565,27.568,27.565C815.128,441.79,827.471,429.447,827.471,414.225L827.471,414.225z"
   id="path81" />
	</g>
	<g
   id="LWPOLYLINE_1_">
		<path
   fill="#FFFFFF"
   stroke="#000000"
   stroke-miterlimit="10"
   d="M850.521,420.889l0.28-2.658c1.449-0.365,2.898-0.735,4.348-1.11    c1.287-0.333,2.54-0.785,3.743-1.351v-3.089c-1.203-0.566-2.456-1.019-3.743-1.351c-1.449-0.375-2.898-0.745-4.348-1.111    l-0.28-2.657c1.342-0.66,2.684-1.322,4.021-1.991c1.19-0.593,2.324-1.296,3.383-2.099l-0.643-3.022    c-1.295-0.303-2.615-0.484-3.943-0.542c-1.494-0.066-2.988-0.127-4.484-0.183l-0.826-2.542c1.178-0.924,2.351-1.852,3.521-2.783    c1.041-0.827,2.001-1.751,2.871-2.756l-1.258-2.822c-1.328-0.027-2.658,0.069-3.969,0.288c-1.475,0.247-2.95,0.499-4.424,0.754    l-1.337-2.313c0.958-1.149,1.913-2.301,2.865-3.455c0.847-1.025,1.594-2.129,2.235-3.293l-1.816-2.499    c-1.305,0.249-2.585,0.62-3.821,1.108c-1.394,0.548-2.783,1.101-4.171,1.657l-1.789-1.987c0.698-1.322,1.394-2.646,2.084-3.975    c0.615-1.178,1.117-2.413,1.502-3.685l-2.295-2.067c-1.227,0.516-2.4,1.144-3.509,1.878c-1.249,0.826-2.493,1.655-3.735,2.488    l-2.164-1.57c0.41-1.439,0.814-2.88,1.213-4.321c0.356-1.281,0.592-2.593,0.704-3.917l-2.677-1.545    c-1.09,0.759-2.109,1.618-3.041,2.566c-1.049,1.067-2.094,2.138-3.136,3.211l-2.442-1.087c0.102-1.493,0.197-2.985,0.288-4.479    c0.081-1.327,0.038-2.658-0.128-3.978l-2.938-0.954c-0.91,0.97-1.727,2.021-2.441,3.143c-0.804,1.262-1.604,2.525-2.4,3.793    l-2.613-0.556c-0.212-1.481-0.43-2.961-0.65-4.441c-0.196-1.315-0.516-2.608-0.951-3.864l-3.074-0.322    c-0.688,1.137-1.268,2.336-1.732,3.582c-0.525,1.401-1.045,2.804-1.561,4.209h-2.672c-0.516-1.405-1.035-2.808-1.56-4.21    c-0.466-1.245-1.046-2.444-1.733-3.581l-3.073,0.322c-0.437,1.256-0.756,2.549-0.952,3.864c-0.221,1.48-0.438,2.96-0.65,4.441    l-2.613,0.556c-0.795-1.268-1.596-2.531-2.4-3.793c-0.714-1.121-1.531-2.173-2.441-3.143l-2.938,0.954    c-0.166,1.319-0.209,2.65-0.128,3.978c0.092,1.494,0.188,2.986,0.288,4.479l-2.442,1.087c-1.041-1.073-2.087-2.144-3.136-3.211    c-0.932-0.948-1.949-1.808-3.04-2.566l-2.677,1.545c0.111,1.324,0.348,2.636,0.703,3.917c0.398,1.442,0.803,2.882,1.213,4.321    l-2.162,1.57c-1.244-0.833-2.488-1.662-3.736-2.488c-1.107-0.734-2.283-1.362-3.508-1.878l-2.297,2.067    c0.385,1.271,0.889,2.507,1.502,3.685c0.69,1.328,1.386,2.652,2.085,3.975l-1.788,1.987c-1.39-0.557-2.779-1.109-4.172-1.657    c-1.236-0.488-2.516-0.859-3.822-1.108l-1.816,2.499c0.642,1.164,1.389,2.268,2.235,3.293c0.952,1.154,1.907,2.306,2.866,3.455    l-1.338,2.313c-1.474-0.255-2.947-0.507-4.424-0.754c-1.311-0.219-2.641-0.315-3.969-0.288l-1.258,2.822    c0.87,1.005,1.832,1.929,2.871,2.756c1.171,0.932,2.346,1.859,3.521,2.783l-0.826,2.542c-1.494,0.056-2.99,0.116-4.484,0.183    c-1.327,0.058-2.647,0.239-3.943,0.542l-0.641,3.022c1.059,0.803,2.191,1.506,3.381,2.099c1.338,0.669,2.68,1.331,4.021,1.991    l-0.279,2.657c-1.45,0.366-2.899,0.736-4.349,1.111c-1.287,0.332-2.54,0.784-3.743,1.351v3.089    c1.203,0.565,2.456,1.018,3.743,1.351c1.449,0.375,2.898,0.745,4.349,1.11l0.279,2.658c-1.342,0.659-2.684,1.323-4.021,1.99    c-1.189,0.593-2.322,1.296-3.381,2.1l0.641,3.021c1.296,0.303,2.616,0.484,3.943,0.542c1.494,0.066,2.99,0.127,4.484,0.183    l0.826,2.542c-1.176,0.924-2.351,1.852-3.521,2.784c-1.039,0.826-2.001,1.75-2.871,2.755l1.258,2.823    c1.328,0.026,2.658-0.07,3.969-0.289c1.477-0.247,2.95-0.498,4.424-0.755l1.338,2.314c-0.959,1.149-1.914,2.301-2.866,3.454    c-0.847,1.027-1.594,2.13-2.235,3.294l1.816,2.5c1.307-0.251,2.586-0.621,3.822-1.108c1.393-0.549,2.782-1.102,4.172-1.657    l1.788,1.986c-0.699,1.322-1.395,2.648-2.085,3.974c-0.613,1.18-1.117,2.413-1.502,3.687l2.297,2.066    c1.225-0.516,2.4-1.144,3.508-1.878c1.248-0.826,2.492-1.655,3.736-2.488l2.162,1.57c-0.41,1.439-0.814,2.88-1.213,4.321    c-0.355,1.281-0.592,2.593-0.703,3.918l2.677,1.545c1.091-0.76,2.108-1.619,3.04-2.567c1.049-1.066,2.095-2.138,3.136-3.211    l2.442,1.087c-0.1,1.493-0.196,2.986-0.288,4.479c-0.081,1.327-0.038,2.658,0.128,3.978l2.938,0.954    c0.91-0.969,1.728-2.021,2.441-3.143c0.805-1.263,1.605-2.526,2.4-3.793l2.613,0.556c0.213,1.481,0.43,2.961,0.65,4.442    c0.196,1.314,0.516,2.607,0.952,3.863l3.073,0.322c0.688-1.137,1.268-2.336,1.733-3.581c0.524-1.401,1.044-2.805,1.56-4.209h2.672    c0.516,1.404,1.035,2.808,1.561,4.209c0.465,1.245,1.045,2.444,1.732,3.581l3.074-0.322c0.436-1.256,0.755-2.549,0.951-3.863    c0.221-1.481,0.438-2.961,0.65-4.442l2.613-0.556c0.797,1.267,1.597,2.53,2.4,3.793c0.715,1.121,1.531,2.174,2.441,3.143    l2.938-0.954c0.166-1.319,0.209-2.65,0.128-3.978c-0.091-1.493-0.187-2.986-0.288-4.479l2.442-1.087    c1.042,1.073,2.087,2.145,3.136,3.211c0.932,0.948,1.951,1.808,3.041,2.567l2.677-1.545c-0.112-1.325-0.348-2.637-0.704-3.918    c-0.398-1.441-0.803-2.882-1.213-4.321l2.164-1.57c1.242,0.833,2.486,1.662,3.735,2.488c1.108,0.734,2.282,1.362,3.509,1.878    l2.295-2.066c-0.385-1.273-0.887-2.507-1.502-3.687c-0.69-1.325-1.386-2.651-2.084-3.974l1.789-1.986    c1.388,0.556,2.777,1.108,4.171,1.657c1.236,0.487,2.517,0.857,3.821,1.108l1.816-2.5c-0.642-1.164-1.389-2.267-2.235-3.294    c-0.952-1.153-1.907-2.305-2.865-3.454l1.337-2.314c1.474,0.257,2.949,0.508,4.424,0.755c1.311,0.219,2.641,0.315,3.969,0.289    l1.258-2.823c-0.87-1.005-1.83-1.929-2.871-2.755c-1.171-0.933-2.344-1.86-3.521-2.784l0.826-2.542    c1.496-0.056,2.99-0.116,4.484-0.183c1.328-0.058,2.648-0.239,3.943-0.542l0.643-3.021c-1.059-0.804-2.192-1.507-3.383-2.1    C853.205,422.212,851.863,421.548,850.521,420.889z"
   id="path84" />
	</g>
</g>
</svg>